<?xml version="1.0"?>
<svg width="150" height="150" xmlns="http://www.w3.org/2000/svg" xmlns:svg="http://www.w3.org/2000/svg" clip-rule="evenodd">
 <g class="layer">
  <title>Layer 1</title>
  <g id="svg_5">
   <path clip-rule="evenodd" d="m38,42l-28,0c-2.21,0 -4,-1.79 -4,-4l0,-28c0,-2.21 1.79,-4 4,-4l28,0c2.21,0 4,1.79 4,4l0,28c0,2.21 -1.79,4 -4,4z" fill="#212121" fill-rule="evenodd" id="svg_1"/>
   <path d="m34.26,34l-6.44,0l-13.99,-20l6.44,0l13.99,20zm-5.67,-1.7l2.56,0l-11.65,-16.6l-2.56,0l11.65,16.6z" fill="#fff" id="svg_2"/>
   <polygon fill="#fff" id="svg_3" points="15.866,34 23.069,25.656 22.127,24.407 13.823,34"/>
   <polygon fill="#fff" id="svg_4" points="24.45,21.721 25.355,23.01 33.136,14 31.136,14"/>
  </g>
  <g id="svg_6">
   <path clip-rule="evenodd" d="m38,42l-28,0c-2.21,0 -4,-1.79 -4,-4l0,-28c0,-2.21 1.79,-4 4,-4l28,0c2.21,0 4,1.79 4,4l0,28c0,2.21 -1.79,4 -4,4z" fill="#212121" fill-rule="evenodd" id="svg_7"/>
   <path d="m34.26,34l-6.44,0l-13.99,-20l6.44,0l13.99,20zm-5.67,-1.7l2.56,0l-11.65,-16.6l-2.56,0l11.65,16.6z" fill="#fff" id="svg_8"/>
   <polygon fill="#fff" id="svg_9" points="15.866,34 23.069,25.656 22.127,24.407 13.823,34"/>
   <polygon fill="#fff" id="svg_10" points="24.45,21.721 25.355,23.01 33.136,14 31.136,14"/>
  </g>
  <g id="svg_11">
   <path clip-rule="evenodd" d="m133.34,150.03l-116.7,0c-9.21,0 -16.67,-7.46 -16.67,-16.67l0,-116.7c0,-9.21 7.46,-16.67 16.67,-16.67l116.7,0c9.21,0 16.67,7.46 16.67,16.67l0,116.7c0,9.21 -7.46,16.67 -16.67,16.67z" fill="#212121" fill-rule="evenodd" id="svg_12"/>
   <path d="m117.75,116.69l-26.84,0l-58.31,-83.36l26.84,0l58.31,83.36zm-23.63,-7.09l10.67,0l-48.56,-69.19l-10.67,0l48.56,69.19z" fill="#fff" id="svg_13"/>
   <polygon fill="#fff" id="svg_14" points="41.081848561453626,116.68896065148328 71.10361147101867,81.91152525074358 67.17741110379757,76.70574258330271 32.56671512206594,116.68896065148328 "/>
   <polygon fill="#fff" id="svg_15" points="76.85957162902196,65.51061495030626 80.6315662764664,70.8830988708014 113.06245197225508,33.32977731750361 104.72653440217618,33.32977731750361 "/>
  </g>
 </g>
</svg>