<?xml version="1.0" encoding="UTF-8" standalone="no"?><!-- Generator: Gravit.io --><svg xmlns="http://www.w3.org/2000/svg" xmlns:xlink="http://www.w3.org/1999/xlink" style="isolation:isolate" viewBox="0 0 128 128" width="128pt" height="128pt"><defs><clipPath id="_clipPath_GIb3Ovwi7W8ZLsnkHPyWsdLsWngyzbf2"><rect width="128" height="128"/></clipPath></defs><g clip-path="url(#_clipPath_GIb3Ovwi7W8ZLsnkHPyWsdLsWngyzbf2)"><path d=" M 47.961 79.02 L 48.154 79.114 L 48.498 79.28 C 48.937 79.489 49.38 79.696 49.827 79.895 L 50.108 80.02 C 50.621 80.245 51.137 80.459 51.659 80.665 L 52.037 80.813 C 52.519 81.001 53.009 81.183 53.5 81.356 L 53.684 81.419 C 54.223 81.607 54.767 81.782 55.316 81.953 L 55.711 82.07 C 56.269 82.239 56.82 82.44 57.396 82.547 C 93.95 89.212 104.567 60.58 104.567 60.58 C 95.649 72.198 79.82 75.263 64.822 71.851 C 64.254 71.723 63.702 71.545 63.148 71.381 L 62.731 71.255 C 62.19 71.089 61.652 70.914 61.119 70.731 L 60.898 70.651 C 60.42 70.483 59.947 70.305 59.477 70.124 L 59.079 69.968 C 58.563 69.765 58.051 69.552 57.545 69.33 L 57.238 69.194 C 56.803 68.997 56.372 68.798 55.944 68.592 L 55.569 68.412 C 55.233 68.248 54.9 68.073 54.568 67.902 L 53.9 67.552 C 53.495 67.335 53.097 67.11 52.701 66.879 L 52.296 66.653 C 51.769 66.342 51.248 66.021 50.733 65.695 L 50.312 65.415 C 49.938 65.174 49.566 64.929 49.2 64.676 L 48.842 64.424 C 48.488 64.174 48.138 63.921 47.791 63.664 L 47.325 63.311 C 47.007 63.068 46.69 62.823 46.377 62.571 L 45.954 62.231 C 45.556 61.903 45.162 61.574 44.772 61.236 L 44.643 61.127 C 44.22 60.759 43.807 60.38 43.399 60 L 43.049 59.663 C 42.746 59.376 42.449 59.086 42.156 58.789 L 41.806 58.439 C 41.434 58.058 41.069 57.672 40.711 57.281 L 40.657 57.223 C 40.278 56.809 39.908 56.386 39.546 55.959 L 39.255 55.613 C 38.985 55.288 38.717 54.958 38.456 54.625 L 38.163 54.261 C 37.848 53.853 37.541 53.446 37.24 53.032 C 28.914 41.674 25.922 26.009 32.577 13.144 L 26.678 20.626 C 19.119 31.489 20.061 45.623 25.834 57.167 L 26.257 57.988 L 26.528 58.508 L 26.696 58.807 L 26.997 59.346 C 27.176 59.662 27.359 59.976 27.547 60.29 L 27.862 60.809 C 28.07 61.145 28.283 61.477 28.502 61.809 L 28.774 62.231 C 29.075 62.679 29.383 63.127 29.7 63.567 L 29.727 63.602 L 29.883 63.813 C 30.158 64.192 30.441 64.566 30.727 64.936 L 31.045 65.34 C 31.3 65.661 31.561 65.981 31.825 66.299 L 32.123 66.654 C 32.478 67.073 32.84 67.489 33.21 67.896 L 33.232 67.919 L 33.274 67.965 C 33.634 68.359 34.004 68.743 34.378 69.129 L 34.732 69.486 C 35.022 69.778 35.316 70.065 35.614 70.351 L 35.975 70.694 C 36.372 71.068 36.773 71.435 37.183 71.795 L 37.203 71.81 L 37.413 71.99 C 37.774 72.302 38.142 72.613 38.512 72.918 L 38.967 73.28 C 39.269 73.522 39.575 73.761 39.883 73.996 L 40.372 74.368 C 40.712 74.618 41.054 74.864 41.399 75.105 L 41.774 75.371 L 41.877 75.444 C 42.205 75.67 42.54 75.886 42.875 76.103 L 43.307 76.391 C 43.82 76.716 44.342 77.037 44.869 77.347 L 45.301 77.591 C 45.689 77.814 46.078 78.033 46.473 78.247 L 47.121 78.583 L 47.961 79.02 L 47.961 79.02 Z  M 51.654 42.225 C 52.473 43.399 53.38 44.795 54.467 45.739 C 54.861 46.173 55.273 46.595 55.693 47.012 L 56.017 47.33 C 56.426 47.726 56.841 48.115 57.269 48.494 L 57.321 48.538 L 57.333 48.551 C 57.808 48.967 58.298 49.367 58.796 49.761 L 59.129 50.021 C 59.629 50.404 60.138 50.78 60.66 51.139 L 60.705 51.172 L 61.403 51.632 L 61.735 51.852 C 62.108 52.09 62.485 52.324 62.87 52.546 L 63.03 52.639 C 63.361 52.83 63.697 53.018 64.033 53.2 L 64.389 53.387 L 65.091 53.75 L 65.197 53.798 C 65.679 54.035 66.165 54.263 66.661 54.48 L 66.984 54.613 C 67.38 54.781 67.781 54.946 68.183 55.1 L 68.697 55.288 C 69.063 55.424 69.429 55.548 69.799 55.671 L 70.298 55.831 C 70.824 55.994 71.343 56.2 71.891 56.291 C 100.113 60.968 106.629 39.237 106.629 39.237 C 100.755 47.696 89.381 51.731 77.243 48.581 C 76.704 48.439 76.172 48.286 75.645 48.119 L 75.164 47.964 C 74.789 47.843 74.416 47.714 74.046 47.579 L 73.542 47.391 C 73.137 47.235 72.735 47.074 72.338 46.906 L 72.014 46.768 C 71.516 46.551 71.025 46.323 70.542 46.083 L 69.803 45.707 L 69.377 45.488 C 69.063 45.318 68.751 45.14 68.443 44.961 L 68.22 44.834 C 67.837 44.611 67.461 44.381 67.088 44.145 L 66.747 43.916 L 66.015 43.432 C 65.494 43.073 64.988 42.698 64.49 42.317 L 64.147 42.046 C 58.834 37.853 54.623 32.119 52.62 25.618 C 50.522 18.878 50.974 11.31 54.609 5.169 L 50.143 11.475 C 44.677 19.34 44.974 29.871 49.238 38.19 C 49.952 39.583 50.755 40.937 51.654 42.225 L 51.654 42.225 Z  M 81.401 32.494 L 82.102 32.737 L 82.411 32.835 C 82.744 32.939 83.073 33.061 83.416 33.125 C 98.999 36.136 103.227 25.128 104.352 23.508 C 100.649 28.839 94.427 30.118 86.792 28.265 C 86.189 28.119 85.526 27.902 84.944 27.695 C 84.199 27.429 83.465 27.127 82.751 26.785 C 81.395 26.133 80.103 25.344 78.905 24.438 C 72.073 19.253 67.829 9.366 72.287 1.312 L 69.875 4.636 C 66.653 9.379 66.336 15.269 68.572 20.505 C 70.93 26.065 75.762 30.425 81.401 32.494 L 81.401 32.494 Z  M 66.359 96.295 L 62.133 96.295 C 61.899 96.295 61.666 96.483 61.616 96.712 L 60.116 103.652 L 58.616 110.592 C 58.567 110.821 58.334 111.009 58.1 111.009 L 55.109 111.009 C 52.15 111.009 52.492 108.962 53.098 106.158 L 53.116 106.073 L 53.182 105.719 L 53.194 105.653 L 53.329 104.933 L 53.474 104.162 L 53.628 103.377 L 54.31 100.045 L 54.993 96.713 C 55.04 96.483 54.886 96.294 54.652 96.294 L 50.315 96.294 C 50.081 96.294 49.849 96.482 49.801 96.712 L 48.868 101.136 L 47.936 105.561 L 47.934 105.567 L 47.848 105.979 C 46.774 110.882 47.058 115.559 52.896 115.706 L 53.066 115.709 L 62.229 115.709 C 62.463 115.709 62.696 115.521 62.745 115.292 L 64.721 106.003 L 66.697 96.713 C 66.746 96.483 66.594 96.296 66.359 96.295 L 66.359 96.295 Z  M 21.103 96.246 L 16.463 96.246 C 16.228 96.246 15.994 96.434 15.942 96.662 L 15.502 98.604 L 15.062 100.546 C 15.011 100.775 15.16 100.962 15.395 100.962 L 20.071 100.962 C 20.306 100.962 20.539 100.774 20.589 100.545 L 21.014 98.604 L 21.439 96.663 C 21.488 96.434 21.338 96.246 21.103 96.246 L 21.103 96.246 Z  M 19.757 102.29 L 15.08 102.29 C 14.846 102.29 14.611 102.478 14.559 102.706 L 13.902 105.616 L 13.246 108.525 L 13.063 109.359 L 12.432 112.329 L 11.802 115.3 C 11.753 115.529 11.652 115.899 11.577 116.121 C 11.577 116.121 10.703 118.721 9.234 118.691 L 9.05 118.687 L 7.779 118.664 L 7.778 118.664 C 7.544 118.661 7.309 118.844 7.254 119.071 L 6.769 121.11 L 6.285 123.148 C 6.23 123.376 6.378 123.564 6.611 123.568 C 7.444 123.578 9.31 123.599 10.439 123.599 C 14.108 123.599 16.043 121.566 17.282 115.716 L 18.733 109.002 L 20.094 102.705 C 20.143 102.478 19.991 102.29 19.757 102.29 Z  M 105.874 100.716 L 105.68 99.915 L 105.489 99.095 L 105.392 98.681 C 105.012 97.204 103.897 96.353 101.475 96.353 L 97.705 96.349 L 94.233 96.344 L 90.326 96.344 C 90.092 96.344 89.86 96.532 89.811 96.761 L 89.638 97.577 L 89.434 98.541 L 89.377 98.812 L 87.618 107.052 L 85.948 114.874 C 85.898 115.104 85.882 115.386 85.91 115.5 C 85.938 115.615 86.389 115.709 86.623 115.709 L 90.147 115.709 C 90.382 115.709 90.679 115.667 90.807 115.615 C 90.935 115.563 91.124 115.102 91.171 114.873 L 91.797 111.774 L 92.424 108.674 L 92.425 108.669 L 92.509 108.256 L 93.269 104.696 L 93.94 101.552 C 93.99 101.323 94.221 101.136 94.455 101.135 L 105.544 101.13 C 105.779 101.132 105.927 100.945 105.874 100.716 L 105.874 100.716 Z  M 120.149 93.476 L 119.295 93.479 L 115.746 93.479 C 115.511 93.479 115.21 93.638 115.079 93.832 L 107.23 105.33 C 107.098 105.524 106.947 105.496 106.895 105.268 L 106.317 102.735 C 106.265 102.506 106.03 102.319 105.795 102.319 L 100.75 102.319 C 100.515 102.319 100.376 102.503 100.44 102.728 L 102.701 110.649 C 102.765 110.875 102.77 111.245 102.712 111.473 L 101.727 115.306 C 101.668 115.534 101.812 115.719 102.047 115.719 L 107.034 115.719 C 107.268 115.719 107.508 115.533 107.566 115.306 L 108.552 111.473 C 108.61 111.244 108.773 110.906 108.915 110.718 L 121.657 93.807 C 121.799 93.619 121.722 93.466 121.488 93.468 L 120.149 93.476 L 120.149 93.476 Z  M 80.063 103.395 L 80.063 103.391 C 80.034 103.645 79.799 103.832 79.564 103.832 L 73.167 103.832 C 72.945 103.832 72.833 103.682 72.866 103.496 L 72.872 103.481 L 72.868 103.483 L 72.871 103.462 L 72.9 103.353 C 73.511 101.729 74.755 100.663 77.094 100.663 C 79.728 100.662 80.242 101.948 80.063 103.395 L 80.063 103.395 Z  M 78.186 96.011 C 69.975 96.011 68.029 100.995 66.937 106.026 C 65.846 111.154 65.939 115.947 74.437 115.947 L 75.467 115.947 L 75.723 115.946 L 75.783 115.946 L 76.803 115.943 L 76.821 115.943 C 79.065 115.934 81.316 115.917 82.227 115.91 C 82.46 115.906 82.688 115.719 82.736 115.49 L 83.08 113.809 L 83.147 113.482 L 83.557 111.476 C 83.604 111.247 83.451 111.058 83.216 111.058 L 75.577 111.058 C 72.538 111.058 71.636 110.251 71.969 107.877 L 84.18 107.877 L 84.179 107.878 L 84.187 107.877 C 84.381 107.874 84.561 107.74 84.632 107.562 L 84.661 107.456 L 84.66 107.457 C 86.473 100.618 85.953 96.012 78.186 96.011 L 78.186 96.011 Z  M 39.376 103.369 L 39.26 103.778 L 39.26 103.779 L 38.338 107.047 L 37.416 110.314 C 37.353 110.541 37.108 110.725 36.873 110.725 L 31.993 110.725 C 28.291 110.725 27.389 107.829 28.291 103.559 C 29.192 99.191 30.959 96.476 34.603 96.201 C 39.583 95.825 40.579 99.327 39.376 103.369 L 39.376 103.369 Z  M 42.724 110.474 C 42.724 110.474 45.025 104.886 45.547 101.66 C 46.26 97.341 44.097 91.075 35.743 91.075 C 27.437 91.075 23.829 97.056 22.453 103.559 C 21.077 110.109 22.88 115.852 31.139 115.805 L 37.655 115.781 L 43.744 115.759 C 43.978 115.757 44.218 115.571 44.278 115.345 L 45.339 111.299 C 45.398 111.071 45.255 110.885 45.02 110.883 L 44.003 110.877 L 42.986 110.871 C 42.787 110.87 42.673 110.74 42.697 110.569 L 42.724 110.474 L 42.724 110.474 Z  M 83.844 106.733 C 83.844 106.888 83.719 107.014 83.564 107.014 C 83.41 107.014 83.284 106.888 83.284 106.733 C 83.284 106.579 83.409 106.454 83.564 106.454 C 83.719 106.454 83.844 106.579 83.844 106.733 Z " fill="rgb(129,201,253)"/></g></svg>