<?xml version="1.0" encoding="utf-8"?>
<!-- Generator: Adobe Illustrator 27.7.0, SVG Export Plug-In . SVG Version: 6.00 Build 0)  -->
<svg version="1.1" id="レイヤー_1" xmlns="http://www.w3.org/2000/svg" xmlns:xlink="http://www.w3.org/1999/xlink" x="0px"
	 y="0px" viewBox="0 0 44 33" style="enable-background:new 0 0 44 33;" xml:space="preserve">
<style type="text/css">
	.st0{fill:#E0E0E0;}
	.st1{fill:#D9D9D9;}
	.st2{fill:#EEEEEE;}
	.st3{fill:#CA3737;}
	.st4{fill:#F5F5F5;}
	.st5{fill:#E84F4B;}
</style>
<path class="st0" d="M3.5,33h37c1.9,0,3.5-1.6,3.5-3.5v-26C44,1.6,42.4,0,40.5,0h-37C1.6,0,0,1.6,0,3.5v26C0,31.4,1.6,33,3.5,33z"/>
<path class="st1" d="M24,33h16.5c1.9,0,3.5-1.6,3.5-3.5v-26C44,1.6,42.4,0,40.5,0h-37C1.6,0,0,1.6,0,3.5L24,33z"/>
<path class="st2" d="M4.7,33h35.8c1.9,0,3.5-1.6,3.5-3.5V4L4.7,33z"/>
<path class="st0" d="M23.7,33h16.8c1.9,0,3.5-1.6,3.5-3.5V4L16.8,24.1L23.7,33z"/>
<path class="st3" d="M40.5,2h-37C1.6,2,0,1.6,0,3.5v26C0,31.4,1.6,33,3.5,33H5V4.5h34V33h1.5c1.9,0,3.5-1.6,3.5-3.5v-26
	C44,1.6,42.4,2,40.5,2z"/>
<path class="st4" d="M40.5,0H22H3.5C1.6,0,0,1.5,0,3.5c0,1.2,1.5,2.3,1.5,2.3L22,20.3L42.5,5.8c0,0,1.5-1.1,1.5-2.3
	C44,1.5,42.4,0,40.5,0z"/>
<path class="st5" d="M41.2,0.1L22,13.5L2.8,0.1C1.2,0.4,0,1.8,0,3.5c0,1.2,1.5,2.3,1.5,2.3L22,20.3L42.5,5.8c0,0,1.5-1.1,1.5-2.3
	C44,1.8,42.8,0.4,41.2,0.1z"/>
</svg>
