<?xml version="1.0" encoding="utf-8"?>
<!-- Generator: Adobe Illustrator 27.7.0, SVG Export Plug-In . SVG Version: 6.00 Build 0)  -->
<svg version="1.1" id="レイヤー_1" xmlns="http://www.w3.org/2000/svg" xmlns:xlink="http://www.w3.org/1999/xlink" x="0px"
	 y="0px" viewBox="0 0 144 144" style="enable-background:new 0 0 144 144;" xml:space="preserve">
<style type="text/css">
	.st0{fill:#03A9F4;}
	.st1{fill:#FFFFFF;}
</style>
<path class="st0" d="M72,0C32.3,0,0,32.3,0,72s32.2,72,72,72s72-32.2,72-72S111.7,0,72,0z"/>
<path class="st1" d="M111.1,49.6c-2.9,1.3-6.5,2.5-9.8,2.9c3.3-2,8.6-6.1,9.8-9.8c-3.1,1.8-8.7,3.8-12.3,4.5
	C90.8,38.8,72,41.9,72,59v6.5c-13,0-25.7-9.9-33.6-19.5c-7.3,12.4,6,21.8,7.6,22.8c-2.6-0.1-7.6-2.1-9.8-3.3c0,0.1,0,0.1,0,0.2
	c0,7.7,5.4,12.9,12.7,14.4c-1.3,0.4-3,1.7-9.2,1.7c2,6.3,12.3,9.6,19.3,9.8c-8.5,6.6-23.2,6.8-26,6.4c29.3,17.2,73.8,1.7,71.5-40.6
	C107.6,55.1,108.9,52.8,111.1,49.6"/>
</svg>
