<?xml version="1.0" encoding="utf-8"?>
<!-- Generator: Adobe Illustrator 27.7.0, SVG Export Plug-In . SVG Version: 6.00 Build 0)  -->
<svg version="1.1" id="レイヤー_1" xmlns="http://www.w3.org/2000/svg" xmlns:xlink="http://www.w3.org/1999/xlink" x="0px"
	 y="0px" viewBox="0 0 40 40" style="enable-background:new 0 0 40 40;" xml:space="preserve">
<style type="text/css">
	.st0{fill:#03A9F4;}
	.st1{fill:#FFFFFF;}
</style>
<path class="st0" d="M20,0C9,0,0,9,0,20s9,20,20,20s20-9,20-20S31,0,20,0z"/>
<path class="st1" d="M32,13.1c-0.9,0.4-2,0.8-3,0.9c1-0.6,2.6-1.9,3-3c-1,0.6-2.7,1.2-3.8,1.4C25.8,9.8,20,10.8,20,16v2
	c-4,0-7.9-3-10.3-6c-2.3,3.8,1.9,6.7,2.3,7c-0.8,0-2.3-0.6-3-1c0,0,0,0,0,0.1c0,2.4,1.7,4,3.9,4.4C12.5,22.6,12,23,10.1,23
	c0.6,1.9,3.8,3,5.9,3c-2.6,2-7.1,2.1-8,2c9,5.3,22.7,0.5,22-12.5C31,14.8,31.3,14.1,32,13.1"/>
</svg>
