<?xml version="1.0" encoding="utf-8"?>
<!-- Generator: Adobe Illustrator 27.7.0, SVG Export Plug-In . SVG Version: 6.00 Build 0)  -->
<svg version="1.1" id="レイヤー_1" xmlns="http://www.w3.org/2000/svg" xmlns:xlink="http://www.w3.org/1999/xlink" x="0px"
	 y="0px" viewBox="0 0 240 240" style="enable-background:new 0 0 240 240;" xml:space="preserve">
<style type="text/css">
	.st0{fill:#FFFFFF;}
</style>
<g>
	<path id="bgRectangle" class="st0" d="M0,240V0h240v240H0z"/>
</g>
<g>
	<g transform="scale(8.53333,8.53333)">
		<path d="M14.1,1.1c-7.2,0-13,5.8-13,13c0,6.1,4.2,11.2,9.9,12.6c-0.1-0.2-0.1-0.4-0.1-0.6v-2.2c-0.5,0-1.4,0-1.6,0
			c-0.9,0-1.7-0.4-2.1-1.1c-0.4-0.8-0.5-2-1.6-2.7c-0.3-0.2-0.1-0.5,0.3-0.5c0.7,0.2,1.2,0.6,1.7,1.3c0.5,0.7,0.8,0.8,1.7,0.8
			c0.5,0,1.2,0,1.8-0.1c0.4-0.9,1-1.7,1.7-2.1c-4.3-0.4-6.4-2.6-6.4-5.5c0-1.3,0.5-2.5,1.5-3.5C7.6,9.4,7.2,7.3,8,6.5
			c2,0,3.1,1.3,3.4,1.6c1-0.3,2-0.5,3.2-0.5c1.1,0,2.2,0.2,3.2,0.5c0.3-0.3,1.5-1.6,3.4-1.6c0.8,0.8,0.4,2.9,0.1,3.9
			c0.9,1,1.4,2.2,1.4,3.5c0,2.9-2.1,5.1-6.4,5.5c1.2,0.6,2.1,2.4,2.1,3.7v3c0,0.1,0,0.2,0,0.3c5.1-1.8,8.7-6.6,8.7-12.3
			C27.1,6.9,21.3,1.1,14.1,1.1L14.1,1.1z"/>
	</g>
</g>
</svg>
