<?xml version="1.0" encoding="utf-8"?>
<!-- Generator: Adobe Illustrator 27.1.1, SVG Export Plug-In . SVG Version: 6.00 Build 0)  -->
<svg version="1.1" id="Social_Icons" xmlns="http://www.w3.org/2000/svg" xmlns:xlink="http://www.w3.org/1999/xlink" x="0px"
	 y="0px" viewBox="0 0 128 128" style="enable-background:new 0 0 128 128;" xml:space="preserve">
<style type="text/css">
	.st0{fill:none;}
	.st1{fill-rule:evenodd;clip-rule:evenodd;fill:#81BF37;}
</style>
<g id="_x37__stroke">
	<g id="Shopify">
		<rect x="14" y="14" class="st0" width="100" height="100"/>
		<path id="Shopify_1_" class="st1" d="M69,29.3c0-0.3,0-0.7,0-1c0-3.2-0.4-5.8-1.1-7.8c2.8,0.4,4.7,3.6,5.9,7.3
			C72.4,28.2,70.8,28.7,69,29.3z M62.8,61.1c0,0-3.3-1.8-7.4-1.8c-6,0-6.3,3.8-6.3,4.7c0,5.2,13.4,7.2,13.4,19.3
			c0,9.5-6,15.7-14.1,15.7c-9.7,0-14.7-6.1-14.7-6.1l2.6-8.7c0,0,5.1,4.4,9.4,4.4c2.8,0,4-2.2,4-3.9c0-6.8-11-7.1-11-18.2
			c0-9.3,6.7-18.4,20.1-18.4c5.2,0,7.8,1.5,7.8,1.5L62.8,61.1z M60.6,17.5c0.6,0,1.1,0.2,1.6,0.6c-4.1,1.9-8.5,6.8-10.4,16.6
			c-2.7,0.8-5.4,1.7-7.8,2.4C46.2,29.6,51.3,17.5,60.6,17.5z M65.7,29.8c0,0.2,0,0.4,0,0.6c-3.1,1-6.5,2-9.9,3.1
			c1.9-7.4,5.5-11,8.6-12.3C65.2,23.1,65.7,25.9,65.7,29.8z M80.5,25.8c-0.2,0-0.4,0.1-0.5,0.1c-0.1,0-1.2,0.4-3,0.9
			c-1.8-5.1-4.9-9.8-10.4-9.8c-0.2,0-0.3,0-0.5,0c-1.6-2.1-3.5-3-5.2-3c-12.8,0-19,16.1-20.9,24.3c-5,1.6-8.5,2.7-9,2.8
			c-2.8,0.9-2.9,1-3.2,3.6c-0.3,2-7.6,58.6-7.6,58.6L77,114l0.1,0L80.5,25.8z M84.5,28.6c1.6,1.6,3.5,3.5,3.5,3.5s7.6,0.6,8,0.6
			c0.4,0,0.8,0.3,0.9,0.8c0.1,0.5,10.9,73.8,10.9,73.8l-26.5,5.8L84.5,28.6z"/>
	</g>
</g>
</svg>
