<?xml version="1.0" encoding="utf-8"?>
<!-- Generator: Adobe Illustrator 27.7.0, SVG Export Plug-In . SVG Version: 6.00 Build 0)  -->
<svg version="1.1" id="レイヤー_1" xmlns="http://www.w3.org/2000/svg" xmlns:xlink="http://www.w3.org/1999/xlink" x="0px"
	 y="0px" width="144px" height="144px" viewBox="0 0 144 144" style="enable-background:new 0 0 144 144;" xml:space="preserve">
<style type="text/css">
	.st0{fill:#FFFFFF;}
	.st1{fill:#333333;}
</style>
<path class="st0" d="M45.2,13c-4.7,0-8.5,3.9-8.5,8.5v101c0,4.7,3.9,8.5,8.5,8.5h53.5c4.7,0,8.5-3.9,8.5-8.5v-101
	c0-4.7-3.9-8.5-8.5-8.5H45.2z M41.3,30.2h61.4v77.4H41.3V30.2z M71.8,115.2c2.2-0.1,4.1,1.7,4.2,4c0.1,2.2-1.7,4.1-4,4.2
	c-2.2,0.1-4.1-1.7-4.2-4l0,0C67.8,117.1,69.6,115.3,71.8,115.2z"/>
<circle cx="71.9" cy="119.3" r="4.1"/>
<rect x="41.3" y="30.2" class="st1" width="61.4" height="77.4"/>
</svg>
