<?xml version="1.0" encoding="UTF-8"?>
<svg id="_レイヤー_1" data-name="レイヤー 1" xmlns="http://www.w3.org/2000/svg" viewBox="0 0 224 108">
  <defs>
    <style>
      .cls-1 {
        fill: #03a9f4;
      }

      .cls-2 {
        fill: #ff5722;
      }

      .cls-3 {
        fill: #1c0802;
      }

      .cls-4 {
        fill: #020f16;
      }
    </style>
  </defs>
  <g>
    <path class="cls-2" d="m12,0h84c6.63,0,12,5.37,12,12v84c0,6.63-5.37,12-12,12H12c-6.63,0-12-5.37-12-12V12C0,5.37,5.37,0,12,0Z"/>
    <path class="cls-3" d="m9,9v90h90V9H9Zm44.38,66l-2.36-9h-12.11l-2.35,9h-9l13.44-43h7.94l13.53,43h-9.09Zm20.62,0h-8v-32h8v32Zm-.29-36.5c-.81.84-1.91,1.26-3.3,1.26s-2.48-.42-3.3-1.26-1.22-1.9-1.22-3.17.41-2.34,1.23-3.17,1.92-1.23,3.28-1.23,2.46.41,3.28,1.23,1.23,1.88,1.23,3.17c0,1.27-.4,2.33-1.21,3.17Z"/>
    <path class="cls-3" d="m40.98,59h7.97l-3.98-15.2-3.98,15.2Z"/>
  </g>
  <g>
    <path class="cls-1" d="m128,0h84c6.63,0,12,5.37,12,12v84c0,6.63-5.37,12-12,12h-84c-6.63,0-12-5.37-12-12V12c0-6.63,5.37-12,12-12Z"/>
    <path class="cls-4" d="m157.87,39h-5.87v13h5.78c1.6,0,2.84-.52,3.72-1.57s1.32-2.58,1.32-4.58-.45-3.74-1.35-4.97-2.1-1.86-3.61-1.88Z"/>
    <path class="cls-4" d="m125,9v90h90V9h-90Zm42.97,47.32c-2.51,2.45-5.99,3.68-10.44,3.68h-5.53v15h-9v-43h14.71c4.27,0,7.68,1.33,10.22,3.98s3.81,6.09,3.81,10.32-1.26,7.57-3.77,10.03Zm28.39,16.79c-2.21,1.78-5.1,2.67-8.69,2.67-2.41,0-4.54-.47-6.38-1.41s-3.29-2.25-4.33-3.93-1.56-3.49-1.56-5.44h8.17c.04,1.5.39,2.62,1.05,3.37s1.74,1.12,3.23,1.12c2.31,0,3.46-1.04,3.46-3.13,0-.73-.35-1.4-1.05-2.02s-2.25-1.45-4.66-2.5c-3.54-1.44-5.98-2.92-7.31-4.47s-1.99-3.45-1.99-5.74c0-2.88,1.04-5.25,3.11-7.12s4.83-2.81,8.24-2.81c3.6,0,6.49.93,8.66,2.79,2.17,1.86,3.25,4.36,3.25,7.5h-8.6c0-2.67-1.11-4.01-3.34-4.01-.91,0-1.66.28-2.25.85s-.88,1.36-.88,2.37c0,.73.32,1.37.97,1.93s2.17,1.35,4.59,2.39c3.51,1.3,5.98,2.74,7.43,4.33s2.17,3.65,2.17,6.18c0,2.94-1.1,5.3-3.31,7.08Z"/>
  </g>
</svg>