<?xml version="1.0" encoding="utf-8"?>
<!-- Generator: Adobe Illustrator 27.7.0, SVG Export Plug-In . SVG Version: 6.00 Build 0)  -->
<svg version="1.1" id="_x32_" xmlns="http://www.w3.org/2000/svg" xmlns:xlink="http://www.w3.org/1999/xlink" x="0px" y="0px"
	 viewBox="0 0 512 512" style="enable-background:new 0 0 512 512;" xml:space="preserve">
<style type="text/css">
	.st0{fill:#FFFFFF;}
</style>
<g>
	<path class="st0" d="M462,422.7l-91.9-93.4c21.3-29.4,34-65.6,34.4-104.6v0l0-1.5c0-49.6-20.1-94.9-52.5-127.6
		c-32.2-32.6-77.1-53-126.5-53.7v0c-1.3,0-2,0-2.3,0c-49.6,0-94.9,20.1-127.6,52.5C62.9,126.8,42.4,171.9,42,221.6v-0.1l0,1.6
		c0,49.6,20.1,94.9,52.5,127.6c32.4,32.7,77.5,53.2,127.2,53.7h0.3h0.2h1.1c40.2,0,77.6-13.2,107.7-35.5l91.3,92.8
		c10.8,11,28.4,11.1,39.4,0.3C472.6,451.3,472.8,433.7,462,422.7z M348.8,224.3L348.8,224.3c-0.3,34.5-14.4,65.5-37.2,88.1
		c-22.8,22.5-53.8,36.4-88.3,36.4c-0.2,0-0.7,0-1.1,0c-34.6-0.3-65.5-14.4-88.1-37.2c-22.5-22.8-36.4-53.9-36.4-88.3l0-1v-0.1
		c0.3-34.6,14.4-65.5,37.2-88.1c22.8-22.6,53.9-36.4,88.4-36.4h0.3l0.3,0l0.4,0c34.6,0.3,65.5,14.4,88.1,37.2
		c22.5,22.8,36.4,53.9,36.4,88.4L348.8,224.3z"/>
	<path class="st0" d="M162.7,216.8l-4-0.6c-10.3-1.4-14-5-14-10.3c0-5.9,4.3-10.2,12-10.2c6.4,0,12.1,1.9,18.3,5.9l1.6-0.3l5.4-8.3
		l-0.2-1.6c-6.1-4.6-15.1-7.6-24.7-7.6c-15.7,0-25.8,9.2-25.8,23c0,12.7,8.3,19.7,23,21.7l4,0.6c10.5,1.5,13.9,5,13.9,10.5
		c0,6.4-5.3,11-14.3,11c-8.5,0-15.8-4.2-20.7-8.1l-1.6,0.1l-6.9,8.1l0.2,1.7c5.9,5.6,16.8,10.1,28,10.1c18.9,0,28.7-10.1,28.7-23.6
		C185.5,225.7,177.4,218.8,162.7,216.8z"/>
	<polygon class="st0" points="199.7,185.1 198.6,186.2 198.6,260.2 199.7,261.3 247.5,261.3 248.6,260.2 248.6,250.5 247.5,249.4 
		212.5,249.4 211.8,248.7 211.8,229.4 212.5,228.8 242,228.8 243.1,227.6 243.1,218 242,216.9 212.5,216.9 211.8,216.2 211.8,197.6 
		212.5,196.9 247.5,196.9 248.6,195.8 248.6,186.2 247.5,185.1 	"/>
	<path class="st0" d="M289.2,183.8c-13.1,0-23,6.3-26.9,18.4c-1.6,4.7-2,9-2,21c0,12,0.5,16.3,2,21c3.9,12.1,13.8,18.4,26.9,18.4
		c13.2,0,23.1-6.3,27-18.4c1.6-4.7,2-9,2-21c0-12-0.4-16.3-2-21C312.3,190.1,302.4,183.8,289.2,183.8z M303.4,240.6
		c-2.1,6.2-6.6,10-14.2,10c-7.5,0-12-3.8-14.1-10c-0.9-2.8-1.3-6.7-1.3-17.5c0-10.9,0.4-14.7,1.3-17.5c2.1-6.2,6.6-10,14.1-10
		c7.6,0,12.1,3.8,14.2,10c0.9,2.8,1.4,6.6,1.4,17.5C304.8,233.9,304.3,237.8,303.4,240.6z"/>
</g>
</svg>
