<svg version="1.1" id="Layer_1" xmlns="http://www.w3.org/2000/svg" xmlns:xlink="http://www.w3.org/1999/xlink" x="0px" y="0px"
	 width="100%" viewBox="0 0 120 120" enable-background="new 0 0 120 120" xml:space="preserve">
<path fill="#58C604" opacity="1.000000" stroke="none" 
	d="
M69.318726,120.776955 
	C67.933327,121.000000 66.866661,121.000000 65.399994,121.000000 
	C62.919426,120.003738 60.725136,120.681984 58.292446,120.782166 
	C56.611111,121.000000 55.222221,121.000000 53.416664,121.000000 
	C42.263985,119.968590 32.213238,117.232346 23.741659,110.030998 
	C10.305589,98.609528 1.774040,84.814430 1.997181,66.588608 
	C2.120891,56.484104 1.013015,46.107307 5.857590,36.748352 
	C16.355093,16.468843 31.570265,2.613122 55.812202,2.047505 
	C61.117149,1.923729 66.433685,1.781606 71.754944,2.314251 
	C93.588615,4.499747 107.728172,17.178621 117.387794,35.807999 
	C120.192261,41.216614 120.042206,47.390480 120.774353,53.668407 
	C121.000000,55.066669 121.000000,56.133339 121.000000,57.600006 
	C120.003731,60.080570 120.681984,62.274860 120.782166,64.707550 
	C121.000000,66.388893 121.000000,67.777779 121.000000,69.583336 
	C119.889297,73.996758 119.963379,78.171494 119.131180,82.218742 
	C117.798149,88.701698 115.677124,90.526871 109.043884,90.545830 
	C106.741531,90.552414 104.472961,91.383957 102.129807,90.538322 
	C97.081184,88.716324 94.192474,83.543114 95.760086,78.085602 
	C99.769020,64.128822 96.225685,51.817608 87.846230,40.559723 
	C85.627174,37.578411 84.924553,34.351482 84.729027,30.790440 
	C84.470879,26.089008 83.773254,25.637817 79.763161,27.645399 
	C76.756226,29.150764 73.772316,29.397505 70.580559,28.541237 
	C61.106213,25.999510 52.121128,27.089485 43.695183,32.244537 
	C40.794258,34.019348 37.817535,35.147568 34.243114,34.337990 
	C30.364780,33.459579 29.493288,35.620312 30.387228,38.926491 
	C31.247887,42.109589 30.533297,44.808384 29.364752,47.968826 
	C25.248901,59.100555 23.713127,70.562332 28.674965,81.952538 
	C33.652649,93.379105 42.930256,98.821877 54.954460,99.580391 
	C65.872498,100.269119 76.571098,99.323410 86.008530,92.728119 
	C88.559296,90.945526 91.428009,91.179771 93.845947,93.334236 
	C96.340363,95.556839 99.033089,97.483261 101.811111,99.330757 
	C105.584732,101.840347 105.802429,103.614090 102.731071,106.913078 
	C94.206322,116.069588 83.464722,120.153069 71.134209,120.498856 
	C70.635017,120.512856 70.135803,120.519630 69.318726,120.776955 
z"/>
<path fill="#FDFEFB" opacity="1.000000" stroke="none" 
	d="
M69.468658,121.000000 
	C70.993454,119.280495 73.603500,119.674316 75.908340,119.072449 
	C86.751526,116.240952 96.167267,111.108322 103.981834,102.833366 
	C101.707161,101.664589 99.806442,100.729744 97.945030,99.722244 
	C94.732826,97.983627 92.836548,93.285957 89.966980,93.064705 
	C87.301437,92.859192 84.562881,96.956795 81.245514,98.224213 
	C69.564095,102.687119 57.611633,103.898605 45.580414,100.196335 
	C30.220007,95.469582 21.440165,80.610153 23.294847,63.231743 
	C23.754204,58.927544 24.157887,54.463821 26.189514,50.661137 
	C28.801981,45.771278 29.094103,41.212261 27.253893,35.995441 
	C25.638948,31.417229 27.210812,29.886547 31.846640,31.388140 
	C36.118038,32.771687 39.449924,32.352528 43.318218,29.800976 
	C51.172569,24.620193 60.110573,23.262098 69.137047,25.927418 
	C73.729027,27.283329 77.242706,26.791239 81.094795,24.142422 
	C85.868393,20.859949 87.017868,21.544319 87.135445,27.264421 
	C87.249779,32.827171 88.555710,37.563351 91.937401,42.414162 
	C99.476692,53.228790 102.005936,65.377113 98.086761,78.452744 
	C96.273483,84.502419 100.159691,88.909431 106.397598,88.259949 
	C106.728203,88.225540 107.059883,88.196861 107.391808,88.180443 
	C115.389343,87.784554 115.451706,87.804237 117.873955,79.982025 
	C118.855186,76.813271 119.498184,73.539780 120.647552,70.156975 
	C121.000000,85.931732 120.907852,101.864502 121.085815,117.794243 
	C121.117470,120.627678 120.431442,121.102890 117.731773,121.076546 
	C101.801559,120.921112 85.869049,121.000000 69.468658,121.000000 
z"/>
<path fill="#FEFFFD" opacity="1.000000" stroke="none" 
	d="
M121.000000,53.531342 
	C119.109444,52.449249 119.670937,50.072540 119.188957,48.112576 
	C112.169800,19.569317 86.941826,1.282725 56.779209,3.030180 
	C29.766121,4.595168 6.471595,27.195358 3.169407,55.042046 
	C-0.292108,84.232315 18.788872,111.818169 47.400543,118.984016 
	C49.171867,119.427650 50.948727,119.849174 52.861504,120.640488 
	C36.687397,121.000000 20.374502,120.952698 4.062518,121.053047 
	C1.724528,121.067429 0.916197,120.730461 0.923968,118.069588 
	C1.035281,79.951691 1.031543,41.833271 0.926278,3.715337 
	C0.919539,1.274956 1.510712,0.935207 3.778018,0.940185 
	C41.896057,1.023880 80.014481,1.042165 118.132271,0.913889 
	C120.951057,0.904403 121.048401,1.937427 121.038811,4.125115 
	C120.967354,20.437382 121.000000,36.750103 121.000000,53.531342 
z"/>
<path fill="#81D442" opacity="1.000000" stroke="none" 
	d="
M121.000000,64.562500 
	C119.487091,62.954155 119.930420,60.748878 120.736572,58.267754 
	C121.000000,60.041668 121.000000,62.083332 121.000000,64.562500 
z"/>
<path fill="#81D442" opacity="1.000000" stroke="none" 
	d="
M58.437500,121.000000 
	C60.037575,119.432549 62.234207,119.946045 64.717278,120.754089 
	C62.958332,121.000000 60.916668,121.000000 58.437500,121.000000 
z"/>
<path fill="#57C603" opacity="1.000000" stroke="none" 
	d="
M33.765369,57.189205 
	C37.975208,52.495506 31.477087,55.338848 32.069283,52.956852 
	C32.641438,52.165089 35.015762,53.993233 35.775795,51.704937 
	C34.359764,50.016064 31.514465,51.836597 29.683260,48.785992 
	C35.749004,51.362057 36.917416,47.428753 38.985142,43.741886 
	C48.099239,27.490944 70.822701,26.520996 81.582062,41.629372 
	C83.413010,44.200409 84.304688,47.823502 88.399147,48.544090 
	C86.751030,49.084465 85.465019,48.819397 85.771790,51.566544 
	C87.156059,63.962677 82.503868,70.053139 70.233322,72.996490 
	C64.194008,74.445152 58.056114,74.914803 51.886730,74.301331 
	C42.073967,73.325562 37.863464,69.448906 35.648827,59.739990 
	C35.513809,59.148087 35.054508,58.630154 34.371880,58.029587 
	C33.859627,57.809414 33.721596,57.637463 33.765369,57.189205 
z"/>
<path fill="#83D545" opacity="1.000000" stroke="none" 
	d="
M33.559921,56.907005 
	C33.942421,57.091599 33.937664,57.270302 33.965282,57.715187 
	C33.125477,58.678616 31.844606,59.971157 31.153765,58.799629 
	C30.376842,57.482132 32.228020,57.312447 33.559921,56.907005 
z"/>
</svg>