<?xml version="1.0" encoding="utf-8"?>
<!-- Generator: Adobe Illustrator 27.1.1, SVG Export Plug-In . SVG Version: 6.00 Build 0)  -->
<svg version="1.1" xmlns="http://www.w3.org/2000/svg" xmlns:xlink="http://www.w3.org/1999/xlink" x="0px" y="0px"
	 viewBox="0 0 2199 2500" style="enable-background:new 0 0 2199 2500;" xml:space="preserve">
<style type="text/css">
	.st0{fill:#FFFFFF;stroke:#FFFFFF;stroke-miterlimit:10;}
	.st1{fill:#D4B830;}
	.st2{opacity:0.986;fill:#EBEBEB;fill-opacity:0;enable-background:new    ;}
	.st3{opacity:0.986;fill:#EBEBEB;fill-opacity:0.9216;enable-background:new    ;}
	.st4{fill:#FDD83C;stroke:#FFFFFF;stroke-miterlimit:10;}
</style>
<g id="レイヤー_2">
	<rect x="1164.1" y="410.7" class="st0" width="762.4" height="1559.1"/>
</g>
<g id="svg4525">
	<g id="g5193_00000141455602165780699710000012741531037002408098_" transform="translate(4.988 -113.385)">
		<path id="path5113_00000056417392885423519140000007096900152182682033_" class="st1" d="M199.1,2360.8L-5,113.8l2199,0.9
			l-202.4,2244.4L1092.8,2613L199.1,2360.8z M1826.1,2238.2l170.7-1924.5h-900.5l6.9,2122.6L1826.1,2238.2z M1012.2,595.8H793.5
			l-2.6,1151.8l-424.5-115.8l0.9,263.3l644.9,174.1L1012.2,595.8L1012.2,595.8z"/>
		<path id="path5159_00000121265589646093073940000007531531512889464249_" class="st2" d="M940.1,2047.8
			c-28.3-8.6-168.1-46.3-310.5-84.9l-258.1-69.5v-129.5c0-126.9,0-129.5,12.9-125.2c6.9,2.6,101.2,28.3,209.3,58.3l196.4,54
			l1.7-574.6l1.7-574.6h214.4v730.7c0,580.6-1.7,730.7-7.7,730.7C995.9,2062.4,968.4,2055.5,940.1,2047.8L940.1,2047.8z"/>
		<path id="path5157_00000035513155067252074720000003081219881613675158_" class="st3" d="M367.2,1895.1l-0.9-263.3
			c0,0,271,76.3,424.5,115.8l2.6-1150.9h218.7v1472.6L367.2,1895.1L367.2,1895.1z"/>
		<path id="path5117_00000178193052310087977450000009866194391403396028_" class="st4" d="M1096.2,312.8h900.5l-170.7,1924.5
			l-729.8,198.1V312.8z M1779.8,1914.8l59.2-719.6l-437.4,48.9V860l466.6-1.7l18.9-262.4l-704.1,3.4l9.4,955.4l425.4-72.9l-6,212.7
			l-428.8,114.1l4.3,260.7L1779.8,1914.8L1779.8,1914.8z"/>
	</g>
</g>
</svg>
